P1
# CREATOR: GIMP PNM Filter Version 1.1
60 100
0000000000000000000000000000000000000010111111111110000000000000000000
0000000000000000000000000000011111111111101000000000000000000000000000
0000000000000000011011111111111000000000000000000000000000000000000000
0000000001111111111111000000000000000000000000000000000000000000000101
1111111111010000000000000000000000000000000000000000000000011111111111
1010000000000000000000000000000000000000000000010111111111110100000000
0000000000000000000000000000000000000010111111111101000000000000000000
0000000000000000000000000000111111111111101000000000000000000000000000
0000000000000000000111111111110100000000000000000000000000000000000000
0000000101111111111110000000000000000000000000000000000000000000000010
1111111111111000000000000000000000000000000000000000000000101111111111
0000000000000000000000000000000000000000000000001111111111111100000000
0000000000000000000000000000000000000001111111111101000000000000000000
0000000000000000000000000010011111111111101000000000000000000000000000
0000000000000000001011111111110100000000000000000000000000000000000000
0000000101111111111101000000000000000000000000000000000000000000000010
1111111111101000000000000000000000000000000000000000000000011111111111
0100000000000000000000000000000000000000000000011011111111111000000000
0000000000000000000000000000000000000001111111111111100000000000000000
0000000000000000000000000001011111111111000000000000000000000000000000
0000000000000000000111111111111100000000000000000000000000000000000000
0000000101111111111101000000000000000000000000000000000000000000000010
1111111111101000000000000000000000000000000000000000000000111111111111
0100000000000000000000000000000000000000000000000111111111110100000000
0000000000000000000000000000000000000101111111111110100000000000000000
0000000000000000000000000000101111111111010000000000000000000000000000
0000000000000000001011111111111000000000000000000000000000000000000000
0000000011111111111111100000000000000000000000000000000000000000000001
1111111111000000000000000000000000000000000000000000000010011111111111
1100000000000000000000000000000000000000000000001011111111110100000000
0000000000000000000000000000000000000101111111111110100000000000000000
0000000000000000000000000000101111111111010000000000000000000000000000
0000000000000000000111111111110100000000000000000000000000000000000000
0000000110111111111110100000000000000000000000000000000000000000000001
1111111111010000000000000000000000000000000000000000000001011111111111
1000000000000000000000000000000000000000000000000111111111111110000000
0000000000000000000000000000000000000101111111111100000000000000000000
0000000000000000000000000000101111111111110000000000000000000000000000
0000000000000000001111111111110100000000000000000000000000000000000000
0000000001111111111110100000000000000000000000000000000000000000000101
1111111111010000000000000000000000000000000000000000000000101111111111
0100000000000000000000000000000000000000000000001011111111111010000000
0000000000000000000000000000000000000011111111111110000000000000000000
0000000000000000000000000000101111111111010000000000000000000000000000
0000000000000000000111111111111010000000000000000000000000000000000000
0000001011111111111101000000000000000000000000000000000000000000000000
1111111111010000000000000000000000000000000000000000000001111111111111
1010000000000000000000000000000000000000000000000111111111111000000000
0000000000000000000000000000000000000010111111111110100000000101010000
0000000000000000000000000000011111111111110000000010101010100000000000
0000000000000000001111111111110100000000111110101000000000000000000000
0000000000111111111110100000001110111010000000000000000000000000000011
1111111111110000000011111110110000000000000000000000000000011111111111
1010000000111111111010000000000000000000000000001011111111111000000000
1111111110100000000000000000000000000001111111111111100000001111111111
0000000000000000000000000000111111111111000000000011111111111100000000
0000000000000000000011111111111100000000111111111010100000000000000000
0000001111111111111100100000001111111111101010000000010010000001000001
1111111111100000000011111111101101011011010101011010101111101111111000
0100000000111111111101111011011011011011101010101111011011010000000000
1010101011110111111111111111101111111110101010100000000000000101010101
0111111111111111111111111111111110100010000000000000000010101111111111
1111111111111111110100100010000000000000000000001101111111111111111111
1111111111101000000000000000000000000001111111111111111111111111111110
1000000000000000000000000000000111111111111111111111111111110100000000
0000000000000000001111111111111111111111111111111010000000000000000000
0000000000011111111111111111111111111110100000000000000000000000000000
1011111111111111111111111111010000000000000000000000000000000101111111
1111111111111111010100000000000000000000000000000010101111111110111111
1111011000000000000000000000000000000000001000001001010000001001010101
0000000000000000000000000000000000101001000010101001000000000000000000
0000000000000000000000000000000100000000001001000000000000000000000000
0000000000000000000000000000000000000000000000000000000000000000000000
0000000000000000000000000000000000000000000000000000000000000000000000
0000000000000000000000000000000000000000000000000000000000000000000000
0000000000000000000000000000000000000000000000000000000000000000000000
0000000000000000000000000000000000000000000000000000000000000000000000
0000000000000000000000000000000000000000000000000000000000000000000000
0000000000000000000000000000000000000000000000000000000000000000000000
0000000000000000000000000000000000000000000000000000000000000000000000
0000000000000000000000000000000000000000000000000000000000000000000000
0000000000000000000000000000000000000000000000000000000000000000000000
0000000000000000000000000000000000000000000000000000000000000000000000
0000000000000000000000000000000000000000000000000000000000000000000000
0000000000000000000000000000000000000000000000000000000000000000000000
00000000000000000000000000000000000000000000000000