P2
# CREATOR: GIMP PNM Filter Version 1.1
240 70
255
1
1
1
0
0
0
0
0
0
0
0
0
0
0
0
0
0
0
0
0
0
0
0
0
0
0
0
0
0
0
0
0
0
0
0
0
0
0
0
0
0
0
0
0
0
0
0
0
0
0
0
0
0
0
0
0
1
2
2
2
2
2
2
1
0
0
0
0
0
0
0
0
0
0
0
0
0
0
0
0
0
0
0
0
0
0
0
0
0
0
0
0
0
0
0
0
0
0
0
0
0
0
0
0
0
0
0
0
0
0
0
0
0
0
0
1
2
3
4
4
4
4
3
2
1
0
0
0
0
0
0
0
0
0
0
0
0
0
0
0
0
0
0
0
0
0
0
0
0
0
0
0
0
0
0
0
0
0
0
0
0
0
0
0
0
0
0
0
0
0
0
0
0
0
0
1
3
5
6
6
6
6
4
3
1
0
0
0
0
0
0
0
0
0
0
0
0
0
0
0
0
0
0
0
0
0
0
0
0
0
0
0
0
0
0
0
0
0
0
0
0
0
0
0
0
0
0
0
0
0
0
0
0
0
0
1
2
3
3
3
1
1
1
0
0
0
0
0
0
0
0
0
0
0
0
0
0
0
0
0
0
0
0
0
0
0
0
0
0
0
0
0
0
0
0
0
0
0
0
0
0
0
0
0
0
0
0
0
0
0
0
0
0
0
0
0
1
2
2
2
2
2
2
1
0
0
0
0
0
0
0
0
0
0
0
0
0
0
0
0
0
0
0
0
0
0
0
0
0
0
0
0
0
0
0
0
0
0
0
0
0
0
0
0
0
0
0
0
0
0
0
0
0
0
0
1
2
3
4
4
4
4
3
2
1
0
0
0
0
0
0
0
0
0
0
0
0
0
0
0
0
0
0
0
0
0
0
0
0
0
0
0
0
0
0
0
0
0
0
0
0
0
0
0
0
0
0
0
0
0
0
0
0
0
0
1
3
5
6
6
6
6
4
3
1
0
0
0
0
0
0
0
0
0
0
0
0
0
0
0
0
0
0
0
0
0
0
0
0
0
0
0
0
0
0
0
0
0
0
0
0
0
0
0
0
0
0
0
0
0
0
0
0
0
0
1
2
3
3
3
1
1
0
0
0
0
0
0
0
0
0
0
0
0
0
0
0
0
0
0
0
0
0
0
0
0
0
0
0
0
0
0
0
0
0
0
0
0
0
0
0
0
0
0
0
0
0
0
0
0
0
0
0
0
0
0
1
1
2
2
2
2
2
1
0
0
0
0
0
0
0
0
0
0
0
0
0
0
0
0
0
0
0
0
0
0
0
0
0
0
0
0
0
0
0
0
0
0
0
0
0
0
0
0
0
0
0
0
0
0
0
0
0
0
0
1
2
3
3
4
4
3
3
2
1
0
0
0
0
0
0
0
0
0
0
0
0
0
0
0
0
0
0
0
0
0
0
0
0
0
0
0
0
0
0
0
0
0
0
0
0
0
0
0
0
0
0
0
0
0
0
0
0
0
0
1
3
4
5
5
5
5
4
3
1
0
0
0
0
0
0
0
0
0
0
0
0
0
0
0
0
0
0
0
0
0
0
0
0
0
0
0
0
0
0
0
0
0
0
0
0
0
0
0
0
0
0
0
0
0
0
0
0
0
0
1
2
2
3
3
0
0
0
0
0
0
0
0
0
0
0
0
0
0
0
0
0
0
0
0
0
0
0
0
0
0
0
0
0
0
0
0
0
0
0
0
0
0
0
0
0
0
0
0
0
0
0
0
0
0
0
0
0
0
0
0
1
1
1
1
1
1
1
1
0
0
0
0
0
0
0
0
0
0
0
0
0
0
0
0
0
0
0
0
0
0
0
0
0
0
0
0
0
0
0
0
0
0
0
0
0
0
0
0
0
0
0
0
0
0
0
0
0
0
0
0
1
2
2
3
3
2
2
1
0
0
0
0
0
0
0
0
0
0
0
0
0
0
0
0
0
0
0
0
0
0
0
0
0
0
0
0
0
0
0
0
0
0
0
0
0
0
0
0
0
0
0
0
0
0
0
0
0
0
0
1
2
3
4
4
4
4
3
2
1
0
0
0
0
0
0
0
0
0
0
0
0
0
0
0
0
0
0
0
0
0
0
0
0
0
0
0
0
0
0
0
0
0
0
0
0
0
0
0
0
0
0
0
0
0
0
0
0
0
0
0
1
2
2
2
0
0
0
0
0
0
0
0
0
0
0
0
0
0
0
0
0
0
0
0
0
0
0
0
0
0
0
0
0
0
0
0
0
0
0
0
0
0
0
0
0
0
0
0
0
0
0
0
0
0
0
0
0
0
0
0
0
0
1
1
1
1
0
0
0
0
0
0
0
0
0
0
0
0
0
0
0
0
0
0
0
0
0
0
0
0
0
0
0
0
0
0
0
0
0
0
0
0
0
0
0
0
0
0
0
0
0
0
0
0
0
0
0
0
0
0
1
1
1
1
1
1
1
1
0
0
0
0
0
0
0
0
0
0
0
0
0
0
0
0
0
0
0
0
0
0
0
0
0
0
0
0
0
0
0
0
0
0
0
0
0
0
0
0
0
0
0
0
0
0
0
0
0
0
0
0
1
1
1
2
2
1
1
1
0
0
0
0
0
0
0
0
0
0
0
0
0
0
0
0
0
0
0
0
0
0
0
0
0
0
0
0
0
0
0
0
0
0
0
0
0
0
0
0
0
0
0
0
0
0
0
0
0
0
0
0
0
1
1
1
0
0
0
0
0
0
0
0
0
1
1
1
1
1
2
2
2
2
2
2
2
2
2
2
2
2
2
2
2
2
2
2
2
2
2
2
2
2
2
2
3
3
2
2
2
2
2
2
2
1
1
1
1
0
0
0
0
0
0
0
0
0
0
0
0
0
0
1
1
2
2
3
3
3
4
4
4
5
5
5
5
5
5
5
5
5
5
5
5
5
5
5
5
5
5
5
5
6
6
6
6
6
6
6
5
5
5
4
4
3
2
2
1
1
0
0
0
0
0
0
0
0
0
0
0
0
1
1
2
3
3
4
5
5
6
6
7
7
8
8
8
8
8
8
8
8
8
8
8
8
8
8
8
8
8
8
9
9
9
9
9
9
9
9
9
8
7
7
6
5
4
3
2
1
0
0
0
0
0
0
0
0
0
0
0
0
1
2
3
4
5
6
6
7
8
9
9
10
10
11
11
11
11
11
11
11
11
11
12
12
12
12
11
11
11
11
11
11
11
11
11
10
10
9
9
8
7
6
5
4
3
2
2
1
0
0
0
0
0
0
0
0
0
0
0
0
1
1
2
2
3
4
4
5
6
6
6
7
7
7
7
8
8
8
8
8
8
8
8
8
8
8
8
8
8
8
8
8
8
8
8
8
8
8
8
7
7
6
5
5
4
3
2
1
0
0
0
0
0
0
0
0
0
0
0
0
2
3
4
6
7
9
10
12
13
14
15
16
17
17
17
18
18
18
18
18
18
18
18
18
18
18
18
18
18
18
18
19
19
20
20
20
20
19
18
17
16
14
12
10
8
6
4
2
1
0
0
0
0
0
0
0
0
0
0
1
3
5
7
9
11
14
16
18
20
22
24
25
26
27
27
28
28
28
28
28
28
28
28
28
28
28
28
28
28
29
29
30
30
31
31
31
31
30
29
27
25
22
19
16
13
10
7
4
1
0
0
0
0
0
0
0
0
0
0
1
4
6
9
12
16
19
22
25
28
30
32
34
35
36
37
38
38
38
38
39
39
39
39
39
39
39
39
39
39
38
38
38
38
37
36
35
34
32
30
28
25
22
19
15
12
8
6
3
1
0
0
0
0
0
0
0
0
0
0
0
1
2
3
4
6
7
8
9
10
11
12
13
13
13
14
14
14
14
14
14
14
14
14
14
14
14
14
14
14
14
15
15
15
15
16
16
15
15
14
13
12
11
10
8
7
5
4
2
1
0
0
0
0
0
0
0
0
0
0
1
3
5
8
11
13
16
19
22
24
26
28
29
31
31
32
33
33
33
33
33
33
33
33
33
33
33
33
33
33
33
34
35
35
36
36
36
36
35
33
31
29
26
22
19
15
11
8
5
1
0
0
0
0
0
0
0
0
0
0
1
5
8
13
17
21
26
30
34
38
41
44
46
48
49
51
51
52
52
52
52
52
52
52
52
51
51
51
51
52
52
53
54
56
56
57
57
56
55
52
49
45
40
35
29
24
18
12
7
2
0
0
0
0
0
0
0
0
0
0
2
7
12
17
23
29
35
41
46
51
56
60
63
65
67
69
69
70
70
71
71
71
72
72
72
72
72
72
71
71
71
70
70
69
69
67
65
63
60
56
51
46
41
34
28
22
16
10
5
2
0
0
0
0
0
0
0
0
0
0
0
2
3
5
7
9
11
12
14
16
17
18
19
20
20
21
21
21
21
21
21
21
21
21
21
21
21
21
21
21
22
22
22
23
23
23
23
23
22
21
20
18
17
14
12
10
8
5
3
1
0
0
0
0
0
0
0
0
0
0
1
4
8
12
16
20
25
29
33
37
40
42
45
46
48
49
49
50
50
50
50
50
50
50
49
49
49
49
49
50
50
51
52
53
54
54
54
53
52
50
47
43
38
33
28
23
17
12
7
2
0
0
0
0
0
0
0
0
0
0
2
7
13
19
26
32
39
46
52
57
62
66
70
73
75
76
77
78
78
78
78
78
78
78
78
77
77
77
77
78
79
80
82
83
85
85
85
84
82
78
73
67
60
52
44
35
27
18
10
3
0
0
0
0
0
0
0
0
0
0
3
10
18
26
35
45
54
62
71
78
85
91
95
99
102
104
105
106
106
107
107
108
108
108
108
108
108
108
108
107
107
106
106
105
104
102
99
95
91
85
78
71
62
53
43
33
24
16
8
2
0
0
0
0
0
0
0
0
0
0
1
2
4
7
9
12
14
17
19
21
23
25
26
27
28
28
29
29
29
29
29
29
29
29
28
28
28
28
28
29
29
29
30
31
31
31
31
31
30
29
27
25
22
19
17
13
10
7
4
1
0
0
0
0
0
0
0
0
0
0
2
6
11
16
22
28
34
40
45
50
54
58
61
63
65
66
67
67
67
67
67
67
67
67
66
66
66
66
66
67
68
69
70
71
72
73
73
72
70
67
62
57
51
45
38
30
23
16
9
3
0
0
0
0
0
0
0
0
0
0
3
10
18
26
35
45
54
63
71
79
85
91
96
99
102
104
105
106
106
106
106
105
105
105
104
104
104
104
104
105
106
108
110
112
114
115
114
113
110
105
98
90
81
70
59
47
36
25
14
4
0
0
0
0
0
0
0
0
0
0
4
14
25
36
49
61
74
86
97
107
116
124
130
135
138
141
142
143
144
144
144
145
145
145
146
146
145
145
145
144
144
144
143
142
141
138
135
130
124
116
107
97
85
72
59
46
33
22
12
3
0
0
0
0
0
0
0
0
0
0
1
3
6
9
12
15
19
22
25
27
30
32
33
34
35
36
36
36
36
36
36
36
36
36
35
35
35
35
35
36
36
37
37
38
39
39
39
38
37
36
33
31
28
24
21
17
13
9
5
2
0
0
0
0
0
0
0
0
0
0
2
8
14
21
28
36
44
51
58
64
69
74
77
80
82
83
84
84
84
84
84
83
83
83
83
82
82
82
83
83
84
86
87
89
90
91
91
89
87
83
78
71
64
56
47
38
29
20
11
4
0
0
0
0
0
0
0
0
0
0
4
13
23
34
45
57
69
81
91
101
109
116
121
126
129
131
132
132
132
132
131
131
131
130
130
129
129
129
130
131
133
135
137
140
142
143
143
141
136
130
122
112
100
87
73
59
45
31
18
6
0
0
0
0
0
0
0
0
0
0
6
18
32
47
62
79
95
110
124
137
148
158
165
171
175
177
179
179
180
180
180
180
180
181
181
181
181
180
180
180
180
180
179
179
177
175
171
165
158
148
137
124
109
93
76
59
43
28
15
4
0
0
0
0
0
0
0
0
0
0
1
4
7
10
14
19
23
27
30
33
36
38
40
41
42
42
43
43
42
42
42
42
42
42
41
41
41
41
42
42
42
43
44
45
46
46
46
45
44
42
39
36
32
29
24
20
15
11
6
2
0
0
0
0
0
0
0
0
0
0
3
10
17
26
35
44
53
62
70
78
84
89
93
96
98
99
100
100
99
99
98
98
97
97
97
96
96
96
97
98
99
101
103
105
106
107
107
105
102
98
91
84
75
66
55
45
34
24
14
4
0
0
0
0
0
0
0
0
0
0
5
16
28
41
56
70
84
98
111
122
132
140
146
151
154
156
156
156
156
155
154
154
153
152
152
151
151
151
152
154
156
159
162
165
167
168
168
165
160
153
144
132
118
103
86
70
53
36
21
7
0
0
0
0
0
0
0
0
0
0
7
22
39
57
76
96
115
134
151
166
180
190
199
205
209
211
212
212
212
211
211
211
211
211
211
211
211
211
211
211
211
212
212
212
211
209
205
199
190
180
166
151
133
113
93
72
52
34
18
5
0
0
0
0
0
0
0
0
0
0
1
4
8
12
17
22
27
31
35
39
42
44
46
47
48
48
48
48
48
47
47
47
46
46
46
46
46
46
46
47
47
48
49
50
51
51
51
51
49
47
44
40
36
32
27
22
17
12
7
2
0
0
0
0
0
0
0
0
0
0
3
11
20
30
41
52
63
73
82
90
97
103
107
110
112
113
113
112
111
110
109
109
108
108
107
107
107
107
108
109
111
113
115
117
119
120
120
118
114
109
103
94
85
74
62
50
38
27
15
5
0
0
0
0
0
0
0
0
0
0
6
18
33
48
65
82
99
115
129
142
153
161
168
173
176
177
177
176
175
173
172
171
170
169
168
168
168
169
170
171
174
177
181
184
187
188
188
185
180
172
161
148
133
116
97
78
59
41
23
7
0
0
0
0
0
0
0
0
0
0
8
26
45
67
89
113
135
157
176
194
208
220
229
235
239
241
240
239
238
236
235
234
233
233
233
233
233
233
234
235
236
238
239
240
241
239
235
229
220
208
194
176
155
133
109
85
62
40
22
6
0
0
0
0
0
0
0
0
0
0
1
5
9
14
19
25
30
35
40
44
47
49
51
52
53
53
52
52
51
50
50
49
49
49
49
49
49
49
49
50
51
52
53
54
55
55
55
54
53
50
47
44
39
35
30
24
19
13
8
3
0
0
0
0
0
0
0
0
0
0
4
13
23
34
46
59
71
82
93
102
109
115
119
121
123
123
122
121
119
118
116
115
114
114
113
113
113
114
115
116
118
121
123
126
127
129
128
127
123
118
110
102
91
80
67
54
42
29
17
5
0
0
0
0
0
0
0
0
0
0
6
21
37
55
74
93
112
130
146
160
171
180
187
191
193
193
192
190
188
185
183
181
180
179
178
178
178
179
180
183
186
189
193
197
200
202
202
199
193
185
174
160
143
125
105
85
64
44
26
8
0
0
0
0
0
0
0
0
0
0
9
29
51
76
102
128
153
177
199
218
233
246
254
255
255
255
255
255
255
252
250
248
247
246
245
245
246
247
248
250
252
255
255
255
255
255
255
254
246
233
218
199
176
151
124
97
70
46
25
7
0
0
0
0
0
0
0
0
0
0
2
6
10
16
21
27
33
39
44
48
51
53
55
56
56
56
55
54
53
52
51
50
50
49
49
49
49
50
50
51
52
53
54
55
56
57
57
56
55
52
49
45
41
36
31
25
20
14
8
3
0
0
0
0
0
0
0
0
0
0
4
14
25
38
51
65
78
91
102
111
119
124
128
130
130
130
128
126
123
121
119
117
116
115
115
115
115
116
117
119
121
124
126
129
131
133
133
131
127
122
115
105
95
83
70
57
43
30
18
6
0
0
0
0
0
0
0
0
0
0
7
23
41
61
82
103
124
143
160
175
186
195
201
204
205
204
201
197
193
190
186
184
182
181
180
180
180
182
184
186
190
194
199
203
206
208
208
206
200
192
180
166
149
130
109
88
67
46
27
9
0
0
0
0
0
0
0
0
0
0
10
32
57
84
112
141
169
195
218
238
254
255
255
255
255
255
255
255
255
255
254
251
249
247
247
247
247
249
251
254
255
255
255
255
255
255
255
255
255
254
238
218
194
166
137
107
78
51
28
8
0
0
0
0
0
0
0
0
0
0
2
6
11
17
23
30
36
42
47
51
54
56
57
58
58
57
55
54
52
51
50
49
48
48
47
47
48
48
49
50
51
52
53
55
56
56
57
56
54
52
49
45
41
36
31
26
20
14
9
3
0
0
0
0
0
0
0
0
0
0
5
15
28
41
56
70
85
98
109
119
126
131
134
135
134
132
129
126
122
119
116
114
112
111
111
111
111
112
114
116
119
122
125
128
130
132
132
130
127
122
115
106
95
83
71
57
44
31
18
6
0
0
0
0
0
0
0
0
0
0
8
25
45
66
89
111
133
154
171
186
198
206
211
212
211
208
203
198
192
186
182
178
176
174
174
174
175
176
179
182
186
191
196
201
205
207
207
205
200
192
180
166
149
130
110
89
68
47
27
9
0
0
0
0
0
0
0
0
0
0
11
35
61
91
122
152
182
210
234
254
255
255
255
255
255
255
255
255
255
254
248
243
239
237
236
236
237
239
243
248
254
255
255
255
255
255
255
255
255
255
254
233
208
180
148
116
85
56
30
9
0
0
0
0
0
0
0
0
0
0
2
6
12
18
25
32
38
44
49
53
56
58
59
59
58
56
54
52
50
48
46
45
44
44
43
44
44
45
45
46
48
49
51
52
53
54
54
54
52
50
47
44
40
35
30
25
20
14
9
3
0
0
0
0
0
0
0
0
0
0
5
16
29
44
59
75
90
103
115
124
131
135
137
137
135
131
127
122
116
112
108
105
103
102
101
102
102
104
106
108
111
115
118
122
124
126
126
125
122
117
111
102
92
81
69
56
43
30
18
6
0
0
0
0
0
0
0
0
0
0
8
26
47
70
94
118
141
162
180
195
206
213
216
215
212
206
199
191
183
176
170
165
162
160
159
160
161
163
166
170
175
180
186
191
195
198
199
197
192
185
174
160
145
127
107
87
67
46
27
9
0
0
0
0
0
0
0
0
0
0
11
37
65
97
129
162
193
222
246
255
255
255
255
255
255
255
255
255
250
240
231
224
219
215
214
214
215
219
224
231
240
250
255
255
255
255
255
255
255
255
255
245
220
190
158
124
91
60
32
10
0
0
0
0
0
0
0
0
0
0
2
7
13
19
26
33
40
46
51
55
57
59
59
58
57
54
51
49
46
43
41
39
38
38
38
38
38
39
40
41
43
44
46
47
49
50
50
50
49
47
44
41
37
33
29
24
19
14
8
3
0
0
0
0
0
0
0
0
0
0
5
17
31
46
62
78
94
107
119
128
134
137
138
136
132
127
120
113
107
101
96
92
90
88
88
88
89
91
94
97
100
104
107
111
114
116
116
116
113
109
103
95
86
76
65
53
41
29
17
6
0
0
0
0
0
0
0
0
0
0
8
28
50
74
99
124
148
169
187
201
211
216
217
214
208
199
189
178
168
158
151
145
141
138
138
138
140
143
147
152
157
163
169
174
179
182
183
182
178
171
162
150
135
119
101
82
63
44
26
8
0
0
0
0
0
0
0
0
0
0
12
38
69
101
136
170
202
231
255
255
255
255
255
255
255
255
255
244
230
216
205
195
188
184
181
181
184
188
195
205
216
230
244
255
255
255
255
255
255
255
255
253
228
198
165
130
95
63
34
10
0
0
0
0
0
0
0
0
0
0
2
7
13
20
27
34
41
47
52
56
58
59
58
57
54
51
47
44
40
37
34
32
31
30
30
30
31
32
33
35
36
38
40
41
43
44
44
44
43
42
39
37
34
30
26
22
18
13
8
3
0
0
0
0
0
0
0
0
0
0
5
18
32
48
65
81
97
110
122
130
135
137
136
133
127
119
111
102
94
86
80
76
72
71
70
71
73
75
78
81
85
89
93
96
99
102
103
102
101
97
92
85
78
69
59
49
38
27
16
5
0
0
0
0
0
0
0
0
0
0
9
29
52
76
102
128
152
174
191
204
212
215
214
208
199
187
174
160
147
135
126
119
114
111
111
112
114
118
122
128
133
140
146
151
156
160
161
161
158
153
145
134
122
107
92
75
58
41
24
8
0
0
0
0
0
0
0
0
0
0
12
40
71
105
140
175
208
237
255
255
255
255
255
255
255
255
239
221
202
185
171
159
150
144
141
141
144
150
159
171
185
202
220
238
255
255
255
255
255
255
255
255
233
203
170
134
99
65
36
10
0
0
0
0
0
0
0
0
0
0
2
7
14
21
28
35
42
48
53
56
58
58
57
54
51
47
42
38
34
30
27
24
23
22
22
22
23
24
26
27
29
31
32
34
35
36
37
37
36
35
34
31
29
26
23
19
16
12
7
2
0
0
0
0
0
0
0
0
0
0
5
18
33
49
66
83
99
112
123
130
134
135
132
127
119
109
99
88
78
69
62
57
53
51
51
52
54
57
60
64
68
72
76
79
82
85
86
86
85
82
78
73
67
59
51
43
34
24
15
5
0
0
0
0
0
0
0
0
0
0
9
29
53
78
105
131
155
176
193
205
211
212
208
199
187
172
155
139
123
109
98
89
84
81
80
81
85
89
94
100
106
113
119
125
130
133
135
135
134
129
123
115
104
93
80
66
51
37
22
7
0
0
0
0
0
0
0
0
0
0
12
40
72
107
143
179
212
240
255
255
255
255
255
255
255
237
215
192
170
150
132
118
107
99
96
96
100
107
118
132
150
169
191
213
235
254
255
255
255
255
255
255
235
206
173
137
101
67
37
11
0
0
0
0
0
0
0
0
0
0
2
8
14
21
28
36
42
48
53
55
57
56
55
51
47
42
37
32
27
22
19
16
14
13
13
14
15
16
18
20
21
23
25
26
27
28
29
29
29
28
27
25
24
22
19
17
14
10
6
2
0
0
0
0
0
0
0
0
0
0
6
19
34
50
67
84
99
113
123
129
132
132
127
120
110
99
86
74
62
52
44
38
34
31
31
32
35
38
42
46
50
54
58
61
64
66
68
68
68
66
63
59
54
49
43
36
29
21
13
4
0
0
0
0
0
0
0
0
0
0
9
30
53
79
106
132
157
177
193
203
208
207
200
189
173
155
135
116
98
82
69
59
53
49
49
51
55
59
65
72
78
84
91
96
101
104
107
107
107
104
99
93
85
76
66
55
44
31
19
6
0
0
0
0
0
0
0
0
0
0
12
41
73
109
145
181
214
242
255
255
255
255
255
255
239
215
189
162
136
113
92
75
63
54
50
50
54
63
76
92
112
135
160
186
211
234
254
255
255
255
255
255
235
207
174
139
103
68
37
11
0
0
0
0
0
0
0
0
0
0
2
8
14
21
29
36
43
48
52
55
56
55
52
48
43
38
32
26
20
15
11
8
7
6
6
6
7
9
10
12
14
16
17
19
20
21
21
22
21
21
20
19
18
17
15
13
11
9
6
2
0
0
0
0
0
0
0
0
0
0
6
19
34
50
68
84
99
112
122
128
130
128
122
113
101
88
74
60
47
36
26
20
15
13
13
14
17
21
24
29
33
37
40
43
46
48
50
50
50
49
47
45
41
38
33
29
23
17
11
4
0
0
0
0
0
0
0
0
0
0
9
30
54
80
107
133
157
176
191
201
204
200
191
177
159
138
116
94
74
56
41
31
24
21
20
23
27
32
38
45
51
58
63
68
72
76
78
79
79
77
74
70
65
59
52
44
35
26
16
5
0
0
0
0
0
0
0
0
0
0
12
41
73
109
146
181
214
241
255
255
255
255
255
244
220
193
163
133
104
78
55
36
21
12
7
7
12
22
36
55
77
103
131
160
189
215
238
255
255
255
255
253
233
206
174
139
103
69
38
11
0
0
0
0
0
0
0
0
0
0
2
8
14
21
29
36
42
48
51
54
54
53
50
45
40
34
27
20
14
9
5
2
0
0
0
0
1
3
4
6
8
9
11
12
13
13
14
14
14
14
14
13
13
12
11
10
9
7
5
2
0
0
0
0
0
0
0
0
0
0
6
19
34
50
67
84
99
111
120
125
126
123
116
106
93
78
63
48
34
22
12
5
0
0
0
0
2
6
10
14
18
22
25
28
30
31
32
33
33
33
32
30
29
27
24
21
18
14
9
3
0
0
0
0
0
0
0
0
0
0
9
29
53
79
106
132
155
175
189
197
198
194
183
166
146
123
99
75
53
34
19
7
0
0
0
0
4
10
16
23
29
34
39
43
47
49
51
52
52
51
50
47
45
41
37
32
27
20
13
5
0
0
0
0
0
0
0
0
0
0
12
40
73
108
145
180
212
238
255
255
255
255
251
230
203
173
141
108
77
48
23
3
0
0
0
0
0
0
3
23
48
76
106
138
169
198
224
244
255
255
255
250
231
205
174
139
104
69
38
11
0
0
0
0
0
0
0
0
0
0
2
8
14
21
28
35
42
47
51
52
53
51
48
43
37
30
23
17
10
5
1
0
0
0
0
0
0
0
0
2
3
5
6
6
7
7
8
8
8
8
8
7
7
7
7
7
7
6
4
1
0
0
0
0
0
0
0
0
0
0
5
18
33
50
67
83
97
109
118
122
123
119
111
100
86
71
54
39
24
11
1
0
0
0
0
0
0
0
0
4
8
11
13
15
16
17
18
18
18
18
17
17
17
16
15
14
13
10
7
3
0
0
0
0
0
0
0
0
0
0
9
29
52
78
105
130
153
172
185
192
193
187
175
157
136
111
86
61
38
18
2
0
0
0
0
0
0
0
1
7
12
17
21
23
26
27
28
28
28
28
27
27
26
25
23
21
19
15
10
4
0
0
0
0
0
0
0
0
0
0
12
39
72
107
143
178
209
234
253
255
255
255
240
218
190
157
123
89
56
27
1
0
0
0
0
0
0
0
0
1
26
56
88
121
154
186
213
235
250
255
255
247
229
204
173
139
103
69
38
11
0
0
0
0
0
0
0
0
0
0
2
8
14
21
28
35
41
46
50
51
51
50
46
41
35
28
21
14
8
3
0
0
0
0
0
0
0
0
0
0
1
2
2
3
3
3
3
2
2
2
2
2
3
3
4
4
5
4
3
1
0
0
0
0
0
0
0
0
0
0
5
18
33
49
65
81
96
107
116
120
120
116
108
96
82
66
49
33
19
6
0
0
0
0
0
0
0
0
0
0
2
4
6
6
7
6
6
6
5
5
5
6
6
7
7
8
8
7
5
2
0
0
0
0
0
0
0
0
0
0
8
28
51
77
103
128
150
169
182
188
188
182
169
151
129
104
78
52
29
9
0
0
0
0
0
0
0
0
0
0
3
7
9
10
10
10
10
9
9
8
8
9
9
10
11
11
11
10
7
3
0
0
0
0
0
0
0
0
0
0
11
38
70
105
140
174
205
230
248
255
255
248
232
209
180
148
113
79
46
15
0
0
0
0
0
0
0
0
0
0
15
45
78
112
147
179
207
230
246
254
254
245
228
203
173
139
103
69
38
11
0
0
0
0
0
0
0
0
0
0
2
7
14
20
27
34
40
45
49
50
50
49
45
40
34
28
21
14
8
2
0
0
0
0
0
0
0
0
0
0
1
1
1
1
0
0
0
0
0
0
0
0
0
0
1
2
3
3
2
1
0
0
0
0
0
0
0
0
0
0
5
17
32
48
64
80
94
105
113
117
117
113
105
94
80
64
48
32
18
6
0
0
0
0
0
0
0
0
0
0
2
3
3
2
1
0
0
0
0
0
0
0
0
0
1
3
4
4
4
2
0
0
0
0
0
0
0
0
0
0
8
27
50
75
100
125
147
165
178
184
184
178
166
148
126
101
76
51
28
9
0
0
0
0
0
0
0
0
0
0
3
4
5
4
2
0
0
0
0
0
0
0
0
0
0
3
5
6
5
2
0
0
0
0
0
0
0
0
0
0
11
37
68
102
137
171
201
225
243
251
252
243
228
205
177
145
111
77
45
15
0
0
0
0
0
0
0
0
0
0
15
45
78
112
147
179
207
230
246
254
254
245
228
203
173
139
103
69
38
11
0
0
0
0
0
0
0
0
0
0
2
7
13
20
27
33
39
44
48
50
50
48
45
40
35
28
22
15
10
5
1
0
0
0
0
0
0
0
1
2
3
3
2
1
0
0
0
0
0
0
0
0
0
0
0
0
1
2
2
1
0
0
0
0
0
0
0
0
0
0
5
17
31
46
62
78
92
103
111
116
116
112
105
94
81
66
51
36
23
11
2
0
0
0
0
0
0
1
4
6
7
7
5
3
0
0
0
0
0
0
0
0
0
0
0
0
1
2
2
1
0
0
0
0
0
0
0
0
0
0
8
27
49
73
98
122
144
162
175
182
182
177
165
148
127
104
80
57
35
18
4
0
0
0
0
0
0
2
6
9
11
10
8
5
1
0
0
0
0
0
0
0
0
0
0
0
0
2
3
1
0
0
0
0
0
0
0
0
0
0
11
36
66
99
134
167
196
221
238
248
248
241
227
206
179
149
117
85
54
26
1
0
0
0
0
0
0
0
0
1
26
55
87
121
154
185
213
235
250
255
255
247
229
204
173
139
103
69
38
11
0
0
0
0
0
0
0
0
0
0
2
7
13
19
26
33
39
43
47
49
49
48
46
41
36
30
24
19
13
9
5
3
2
2
2
3
5
6
7
7
7
6
5
3
1
0
0
0
0
0
0
0
0
0
0
0
0
1
1
1
0
0
0
0
0
0
0
0
0
0
5
16
30
45
61
76
90
101
110
114
115
113
106
97
85
72
58
44
32
21
14
8
6
5
6
9
12
14
16
17
17
15
13
9
4
0
0
0
0
0
0
0
0
0
0
0
0
0
1
1
0
0
0
0
0
0
0
0
0
0
8
26
47
71
95
119
141
159
172
180
181
177
167
152
134
112
90
69
50
34
22
13
9
8
10
14
18
22
26
27
27
24
20
14
7
0
0
0
0
0
0
0
0
0
0
0
0
0
1
1
0
0
0
0
0
0
0
0
0
0
10
35
64
97
130
163
192
217
235
245
247
242
230
211
188
160
131
102
73
47
24
5
0
0
0
0
0
0
4
24
48
75
105
137
168
198
223
244
255
255
255
250
231
205
174
139
104
69
38
11
0
0
0
0
0
0
0
0
0
0
2
7
13
19
25
32
38
43
47
49
50
49
47
43
39
34
28
23
19
15
12
10
9
9
10
11
12
13
13
13
13
11
9
7
4
1
0
0
0
0
0
0
0
0
0
0
0
1
1
1
0
0
0
0
0
0
0
0
0
0
5
16
29
44
59
74
88
100
108
114
116
114
109
101
91
79
67
55
45
36
29
25
23
23
25
27
30
32
33
33
31
28
24
18
12
5
0
0
0
0
0
0
0
0
0
0
0
0
1
1
0
0
0
0
0
0
0
0
0
0
7
25
46
69
93
116
138
156
170
179
182
180
172
159
143
125
106
87
70
56
46
40
37
37
39
43
47
50
52
52
49
44
37
28
18
8
0
0
0
0
0
0
0
0
0
0
0
0
0
1
0
0
0
0
0
0
0
0
0
0
10
34
62
94
127
159
189
214
232
244
248
245
236
221
200
177
151
125
100
76
56
39
25
16
11
11
15
24
37
55
77
102
130
159
188
215
237
255
255
255
255
253
233
206
174
139
103
69
38
11
0
0
0
0
0
0
0
0
0
0
2
7
12
18
25
31
37
42
46
49
50
50
48
46
42
38
33
29
25
22
19
18
18
18
19
20
21
21
21
21
20
18
15
12
8
5
1
0
0
0
0
0
0
0
0
0
0
0
1
1
0
0
0
0
0
0
0
0
0
0
5
15
28
42
57
72
86
98
107
114
117
117
113
107
99
89
79
69
60
53
48
45
44
45
46
49
51
52
53
51
48
44
38
30
22
14
5
0
0
0
0
0
0
0
0
0
0
0
0
1
0
0
0
0
0
0
0
0
0
0
7
24
44
67
90
114
135
154
169
179
184
183
178
169
156
140
124
108
94
83
75
71
69
70
73
77
80
82
83
81
76
69
59
47
35
21
8
0
0
0
0
0
0
0
0
0
0
0
0
0
0
0
0
0
0
0
0
0
0
0
10
33
60
91
124
156
185
211
231
244
250
250
244
233
216
197
175
153
131
111
94
79
67
59
55
54
58
65
77
93
112
135
159
185
211
234
253
255
255
255
255
255
235
207
174
139
103
68
37
11
0
0
0
0
0
0
0
0
0
0
2
6
12
18
24
31
36
42
46
49
51
51
50
48
45
42
38
35
32
29
27
27
27
27
28
29
30
30
30
29
27
24
21
17
13
8
4
0
0
0
0
0
0
0
0
0
0
0
1
1
0
0
0
0
0
0
0
0
0
0
4
15
27
41
56
71
85
97
107
114
118
120
118
114
107
100
92
84
76
71
67
65
65
67
69
71
73
74
73
71
67
60
53
44
34
23
13
4
0
0
0
0
0
0
0
0
0
0
0
0
0
0
0
0
0
0
0
0
0
0
7
23
43
65
88
111
133
152
168
179
186
188
185
179
169
157
144
131
120
112
106
103
103
105
108
112
115
116
115
111
105
95
83
68
53
37
21
7
0
0
0
0
0
0
0
0
0
0
0
0
0
0
0
0
0
0
0
0
0
0
9
32
59
89
121
152
182
208
229
244
253
255
253
246
234
218
201
183
165
148
133
121
111
105
101
100
103
109
119
133
149
169
190
212
234
253
255
255
255
255
255
255
235
206
173
137
101
67
37
11
0
0
0
0
0
0
0
0
0
0
2
6
11
17
24
30
36
41
46
49
51
52
52
51
49
46
43
40
38
36
35
35
35
36
37
38
38
39
38
37
34
31
27
23
18
13
8
3
0
0
0
0
0
0
0
0
0
0
1
1
0
0
0
0
0
0
0
0
0
0
4
14
26
40
55
69
83
96
106
114
120
122
122
120
115
110
104
97
92
88
86
85
86
88
90
92
94
94
93
89
84
76
67
57
45
33
22
11
2
0
0
0
0
0
0
0
0
0
0
0
0
0
0
0
0
0
0
0
0
0
7
22
41
63
86
109
131
151
167
180
188
192
192
188
181
173
163
153
145
138
135
134
135
138
141
145
147
148
145
140
132
120
106
89
71
52
34
18
3
0
0
0
0
0
0
0
0
0
0
0
0
0
0
0
0
0
0
0
0
0
9
31
57
86
118
149
179
206
228
245
255
255
255
255
250
239
226
212
197
184
172
162
154
149
146
145
147
152
160
171
185
201
219
237
255
255
255
255
255
255
255
255
233
203
170
134
99
65
36
10
0
0
0
0
0
0
0
0
0
0
2
6
11
17
23
29
35
41
46
49
52
53
54
53
52
50
48
46
44
42
42
42
42
43
45
45
46
46
45
43
41
37
33
27
22
16
11
6
1
0
0
0
0
0
0
0
0
0
1
1
0
0
0
0
0
0
0
0
0
0
4
14
26
39
53
68
82
95
106
115
121
125
126
125
122
118
114
109
105
103
101
102
103
105
108
110
111
111
109
105
98
90
80
68
55
42
29
17
7
0
0
0
0
0
0
0
0
0
0
0
0
0
0
0
0
0
0
0
0
0
6
22
40
62
84
107
129
149
166
180
190
196
198
197
192
186
179
172
165
161
159
160
162
165
169
173
175
174
171
164
154
141
125
107
87
66
46
27
11
0
0
0
0
0
0
0
0
0
0
0
0
0
0
0
0
0
0
0
0
0
9
30
56
85
115
147
177
204
228
246
255
255
255
255
255
255
248
237
226
215
206
198
192
188
185
185
186
190
197
205
216
229
243
255
255
255
255
255
255
255
255
253
228
198
165
130
95
63
34
10
0
0
0
0
0
0
0
0
0
0
2
6
11
17
23
29
35
41
45
49
52
54
55
55
54
53
51
49
48
47
47
47
48
49
50
51
52
52
50
48
45
42
37
31
25
19
14
8
4
0
0
0
0
0
0
0
0
0
1
1
0
0
0
0
0
0
0
0
0
0
4
14
25
38
53
67
81
94
106
115
122
127
129
129
127
125
121
118
115
113
113
113
115
118
121
123
124
123
121
116
109
100
89
76
62
48
35
22
11
2
0
0
0
0
0
0
0
0
0
0
0
0
0
0
0
0
0
0
0
0
6
21
40
61
83
106
128
148
166
181
192
199
202
203
200
196
190
185
180
178
177
178
181
185
190
193
195
194
190
182
171
157
139
119
98
76
55
35
18
3
0
0
0
0
0
0
0
0
0
0
0
0
0
0
0
0
0
0
0
0
9
29
55
83
114
145
175
203
227
246
255
255
255
255
255
255
255
255
247
239
232
226
221
218
216
216
217
220
225
231
240
250
255
255
255
255
255
255
255
255
255
245
220
190
158
124
91
60
32
10
0
0
0
0
0
0
0
0
0
0
2
6
11
16
22
29
35
40
45
49
52
55
56
56
55
54
53
52
51
50
50
51
52
53
54
55
55
55
54
52
49
44
40
34
28
22
16
10
5
1
0
0
0
0
0
0
0
0
1
1
0
0
0
0
0
0
0
0
0
0
4
14
25
38
52
67
81
94
106
115
122
127
130
131
130
128
125
122
120
118
118
120
122
125
127
129
130
130
127
122
114
105
93
80
66
52
38
25
13
4
0
0
0
0
0
0
0
0
0
0
0
0
0
0
0
0
0
0
0
0
6
21
39
60
82
105
127
148
166
181
192
200
205
206
204
201
196
192
188
186
186
188
191
196
200
203
205
204
199
191
180
165
147
126
104
81
59
39
21
6
0
0
0
0
0
0
0
0
0
0
0
0
0
0
0
0
0
0
0
0
9
29
54
82
112
143
174
202
226
247
255
255
255
255
255
255
255
255
255
254
248
244
240
238
237
237
238
240
243
248
254
255
255
255
255
255
255
255
255
255
254
233
208
180
148
116
85
56
30
9
0
0
0
0
0
0
0
0
0
0
2
6
11
16
22
29
35
40
45
49
52
55
56
56
56
55
54
53
52
51
51
52
53
54
55
56
56
56
55
53
50
46
41
35
29
23
17
11
6
2
0
0
0
0
0
0
0
1
1
1
0
0
0
0
0
0
0
0
0
0
4
14
25
38
52
67
81
94
106
115
122
127
130
131
130
128
125
122
120
118
118
120
122
125
127
129
130
130
127
122
114
105
93
80
66
52
38
25
13
4
0
0
0
0
0
0
0
0
0
0
0
0
0
0
0
0
0
0
0
0
6
21
39
60
82
105
127
148
166
181
192
200
205
206
204
201
196
192
188
186
186
188
191
196
200
203
205
204
199
191
180
165
147
126
104
81
59
39
21
6
0
0
0
0
0
0
0
0
0
0
0
0
0
0
0
0
0
0
0
0
8
29
54
82
112
143
173
201
226
246
255
255
255
255
255
255
255
255
255
255
254
250
248
246
245
245
246
248
251
254
255
255
255
255
255
255
255
255
255
254
238
218
194
166
137
107
78
51
28
8
0
0
0
0
0
0
0
0
0
0
2
6
11
16
22
29
35
40
45
49
52
54
56
56
55
54
53
52
51
50
50
51
52
53
54
55
55
55
54
52
49
45
40
35
29
23
17
12
7
3
0
0
0
0
0
0
0
1
1
1
0
0
0
0
0
0
0
0
0
0
4
14
25
39
53
67
81
94
106
115
122
127
129
129
127
125
121
118
115
113
113
113
115
118
121
123
124
123
121
116
109
100
89
76
62
48
35
22
11
2
0
0
0
0
0
0
0
0
0
0
0
0
0
0
0
0
0
0
0
0
6
21
40
61
83
106
128
148
166
181
192
199
202
203
200
196
190
185
180
178
177
178
181
185
190
193
195
194
190
182
171
157
139
119
98
76
55
35
18
3
0
0
0
0
0
0
0
0
0
0
0
0
0
0
0
0
0
0
0
0
8
29
54
82
112
143
173
201
226
246
255
255
255
255
255
255
255
255
255
254
249
245
243
242
241
242
243
245
247
249
253
255
255
255
255
255
255
255
246
233
218
199
176
151
124
97
70
46
25
7
0
0
0
0
0
0
0
0
0
0
2
6
11
17
23
29
35
40
45
49
52
54
55
55
54
53
51
50
48
47
47
47
48
49
50
51
51
51
50
48
46
42
38
33
27
22
16
11
7
3
0
0
0
0
0
0
0
1
1
1
0
0
0
0
0
0
0
0
0
0
4
14
26
39
54
68
82
95
106
115
121
125
126
125
122
118
114
109
105
103
101
102
103
105
108
110
111
111
109
105
98
90
80
68
55
42
29
17
7
0
0
0
0
0
0
0
0
0
0
0
0
0
0
0
0
0
0
0
0
0
6
22
40
62
84
107
129
149
166
180
190
196
198
197
192
186
179
172
165
161
159
160
162
165
169
173
175
174
171
164
154
141
125
107
87
66
46
27
11
0
0
0
0
0
0
0
0
0
0
0
0
0
0
0
0
0
0
0
0
0
9
29
54
82
113
144
174
202
226
245
255
255
255
255
255
255
255
253
245
238
233
229
226
226
226
227
228
230
232
234
237
239
241
242
242
240
236
229
220
208
194
176
155
133
109
85
62
40
22
6
0
0
0
0
0
0
0
0
0
0
2
6
11
17
23
29
35
41
45
49
51
53
53
53
52
50
48
46
44
43
42
42
42
43
44
45
45
45
45
43
41
38
34
30
25
20
15
10
6
3
0
0
0
0
0
0
1
1
1
1
0
0
0
0
0
0
0
0
0
0
4
14
27
40
55
69
83
96
106
114
120
122
122
120
115
110
104
97
92
88
86
85
86
88
90
92
94
94
93
89
84
76
67
57
45
33
22
11
2
0
0
0
0
0
0
0
0
0
0
0
0
0
0
0
0
0
0
0
0
0
7
22
41
63
86
109
131
151
167
180
188
192
192
188
181
173
163
153
145
138
135
134
135
138
141
145
147
148
145
140
132
120
106
89
71
52
34
18
3
0
0
0
0
0
0
0
0
0
0
0
0
0
0
0
0
0
0
0
0
0
9
30
55
84
114
145
175
203
226
244
255
255
255
255
255
254
244
234
223
215
208
203
200
199
200
201
203
205
208
210
212
214
215
215
214
211
206
199
191
180
166
151
133
113
93
72
52
34
18
5
0
0
0
0
0
0
0
0
0
0
2
6
11
17
23
30
36
41
45
49
51
52
52
51
49
46
44
41
38
37
35
35
35
36
36
37
38
38
38
37
35
32
29
25
21
17
13
9
5
3
0
0
0
0
0
0
1
2
2
1
0
0
0
0
0
0
0
0
0
0
4
15
27
41
56
71
85
97
107
114
118
120
118
114
107
100
92
84
76
71
67
65
65
67
69
71
73
74
73
71
67
60
53
44
34
23
13
4
0
0
0
0
0
0
0
0
0
0
0
0
0
0
0
0
0
0
0
0
0
0
7
23
43
65
88
111
133
152
168
179
186
188
185
179
169
157
144
131
120
112
106
103
103
105
108
112
115
116
115
111
105
95
83
68
53
37
21
7
0
0
0
0
0
0
0
0
0
0
0
0
0
0
0
0
0
0
0
0
0
0
9
30
56
85
116
148
178
204
226
243
255
255
255
255
247
235
222
208
195
184
176
169
166
165
165
167
170
173
176
178
181
182
183
182
180
177
172
166
158
148
137
124
109
93
76
59
43
28
15
4
0
0
0
0
0
0
0
0
0
0
2
6
12
18
24
30
36
41
46
49
50
51
50
48
46
42
39
35
32
30
28
27
27
27
28
29
30
30
30
29
28
26
24
21
17
14
10
7
4
2
0
0
0
0
0
1
2
2
2
1
0
0
0
0
0
0
0
0
0
0
5
15
28
43
58
73
86
98
107
114
117
117
113
107
99
89
79
69
60
53
48
45
44
45
46
49
51
52
53
51
48
44
38
30
22
14
5
0
0
0
0
0
0
0
0
0
0
0
0
1
0
0
0
0
0
0
0
0
0
0
7
24
44
67
90
114
135
154
169
179
184
183
178
169
156
140
124
108
94
83
75
71
69
70
73
77
80
82
83
81
76
69
59
47
35
21
8
0
0
0
0
0
0
0
0
0
0
0
0
0
0
0
0
0
0
0
0
0
0
0
9
31
58
88
119
151
180
206
228
243
252
255
251
243
230
215
197
180
164
150
139
131
127
125
126
129
132
136
139
143
145
147
147
146
144
141
137
131
124
116
107
97
85
72
59
46
33
22
12
3
0
0
0
0
0
0
0
0
0
0
2
7
12
18
25
31
37
42
46
49
50
50
48
46
42
38
34
30
26
23
20
19
18
18
19
20
21
21
22
22
21
20
18
16
13
10
8
5
3
1
0
0
0
0
0
1
2
2
2
1
0
0
0
0
0
0
0
0
0
0
5
16
29
44
59
74
88
100
108
114
116
114
109
101
91
79
67
55
45
36
29
25
23
23
25
27
30
32
33
33
31
28
24
18
12
5
0
0
0
0
0
0
0
0
0
0
0
0
1
1
0
0
0
0
0
0
0
0
0
0
7
25
46
69
93
116
138
156
170
179
182
180
172
159
143
125
106
87
70
56
46
40
37
37
39
43
47
50
52
52
49
44
37
28
18
8
0
0
0
0
0
0
0
0
0
0
0
0
0
1
0
0
0
0
0
0
0
0
0
0
10
32
60
90
122
154
184
209
229
243
250
249
243
231
214
194
172
151
131
114
101
91
86
84
85
88
92
97
101
105
108
110
111
110
108
105
101
96
91
85
78
71
62
53
43
33
24
16
8
2
0
0
0
0
0
0
0
0
0
0
2
7
13
19
25
32
38
43
46
49
50
49
47
44
39
34
29
24
20
16
13
11
10
10
10
11
12
13
14
14
14
13
12
11
9
7
5
4
2
1
0
0
0
0
1
2
3
3
2
1
0
0
0
0
0
0
0
0
0
0
5
17
30
45
61
76
90
101
110
114
115
113
106
97
85
72
58
44
32
21
14
8
6
5
6
9
12
14
16
17
17
15
13
9
4
0
0
0
0
0
0
0
0
0
0
0
0
0
1
1
0
0
0
0
0
0
0
0
0
0
8
26
47
71
95
119
141
159
172
180
181
177
167
152
134
112
90
69
50
34
22
13
9
8
10
14
18
22
26
27
27
24
20
14
7
0
0
0
0
0
0
0
0
0
0
0
0
0
1
1
0
0
0
0
0
0
0
0
0
0
10
34
62
93
126
159
188
213
232
244
249
246
236
219
198
174
148
123
99
79
64
53
46
44
44
48
53
59
64
69
73
75
76
75
74
71
68
64
60
56
51
46
41
34
28
22
16
10
5
2
0
0
0
0
0
0
0
0
0
0
2
7
13
20
26
33
39
44
47
49
50
49
46
42
37
31
25
19
14
10
6
4
2
2
2
3
4
6
7
7
8
8
7
7
6
4
3
2
1
0
0
0
0
1
2
2
3
3
2
1
0
0
0
0
0
0
0
0
0
0
5
17
31
47
63
78
92
103
111
116
116
112
105
94
81
66
51
36
23
11
2
0
0
0
0
0
0
1
4
6
7
7
5
3
0
0
0
0
0
0
0
0
0
0
0
0
1
2
2
1
0
0
0
0
0
0
0
0
0
0
8
27
49
73
98
122
144
162
175
182
182
177
165
148
127
104
80
57
35
18
4
0
0
0
0
0
0
2
6
9
11
10
8
5
1
0
0
0
0
0
0
0
0
0
0
0
0
2
3
1
0
0
0
0
0
0
0
0
0
0
10
35
65
97
131
164
194
218
236
247
249
244
230
210
185
157
127
98
71
48
30
17
10
7
8
12
17
24
31
36
41
43
45
44
43
41
38
36
33
30
28
25
22
19
15
12
8
6
3
1
0
0
0
0
0
0
0
0
0
0
2
7
14
20
27
34
40
45
48
50
50
49
46
41
35
29
22
15
9
4
0
0
0
0
0
0
0
0
1
2
3
3
3
3
3
2
1
1
0
0
0
0
1
1
2
3
3
3
3
1
0
0
0
0
0
0
0
0
0
0
5
17
32
48
64
80
94
105
113
117
117
113
105
94
80
64
48
32
18
6
0
0
0
0
0
0
0
0
0
0
2
3
3
2
1
0
0
0
0
0
0
0
0
0
1
3
4
4
4
2
0
0
0
0
0
0
0
0
0
0
8
27
50
75
100
125
147
165
178
184
184
178
166
148
126
101
76
51
28
9
0
0
0
0
0
0
0
0
0
0
3
4
5
4
2
0
0
0
0
0
0
0
0
0
0
3
5
6
5
2
0
0
0
0
0
0
0
0
0
0
11
37
68
101
136
169
200
224
242
251
252
244
228
205
176
144
110
77
48
22
2
0
0
0
0
0
0
0
2
9
14
17
19
19
18
16
14
12
10
9
8
7
6
5
4
3
2
2
1
0
0
0
0
0
0
0
0
0
0
0
2
8
14
21
28
35
41
46
50
51
51
49
46
40
34
27
20
12
6
0
0
0
0
0
0
0
0
0
0
0
0
0
0
0
0
0
0
0
0
0
0
0
1
2
3
3
4
4
3
1
0
0
0
0
0
0
0
0
0
0
5
18
33
49
65
81
96
107
116
120
120
116
108
96
82
66
49
33
19
6
0
0
0
0
0
0
0
0
0
0
2
4
6
6
7
6
6
6
5
5
5
6
6
7
7
8
8
7
5
2
0
0
0
0
0
0
0
0
0
0
8
28
51
77
103
128
150
169
182
188
188
182
169
151
129
104
78
52
29
9
0
0
0
0
0
0
0
0
0
0
3
7
9
10
10
10
10
9
9
8
8
9
9
10
11
11
11
10
7
3
0
0
0
0
0
0
0
0
0
0
12
39
71
106
141
176
206
231
248
255
255
247
228
202
170
135
98
62
30
2
0
0
0
0
0
0
0
0
0
0
0
0
0
0
0
0
0
0
0
0
0
0
0
0
0
0
0
0
0
0
0
0
1
1
1
0
0
0
0
0
2
8
15
22
29
36
43
48
51
53
52
50
46
40
34
26
18
11
4
0
0
0
0
0
0
0
0
0
0
0
0
0
0
0
0
0
0
0
0
0
0
1
1
2
3
4
4
4
3
1
0
0
0
0
0
0
0
0
0
0
5
18
33
49
66
83
97
109
118
122
123
119
111
100
86
71
54
39
24
11
1
0
0
0
0
0
0
0
0
4
8
11
13
15
16
17
18
18
18
18
17
17
17
16
15
14
13
10
7
3
0
0
0
0
0
0
0
0
0
0
9
29
52
78
105
130
153
172
185
192
193
187
175
157
136
111
86
61
38
18
2
0
0
0
0
0
0
0
1
7
12
17
21
23
26
27
28
28
28
28
27
27
26
25
23
21
19
15
10
4
0
0
0
0
0
0
0
0
0
0
12
41
74
110
147
182
213
238
255
255
255
251
230
202
168
130
90
52
17
0
0
0
0
0
0
0
0
0
0
0
0
0
0
0
0
0
0
0
0
0
0
0
0
0
0
0
0
0
0
0
0
1
2
2
2
0
0
0
0
0
2
8
15
22
30
37
44
49
52
54
54
51
47
41
34
26
18
9
2
0
0
0
0
0
0
0
0
0
0
0
0
0
0
0
0
0
0
0
0
0
0
1
2
3
3
4
4
4
3
1
0
0
0
0
0
0
0
0
0
0
5
18
33
50
67
84
99
111
120
125
126
123
116
106
93
78
63
48
34
22
12
5
0
0
0
0
2
6
10
14
18
22
25
28
30
31
32
33
33
33
32
30
29
27
24
21
18
14
9
3
0
0
0
0
0
0
0
0
0
0
9
29
53
79
106
132
155
175
189
197
198
194
183
166
146
123
99
75
53
34
19
7
0
0
0
0
4
10
16
23
29
34
39
43
47
49
51
52
52
51
50
47
45
41
37
32
27
20
13
5
0
0
0
0
0
0
0
0
0
0
13
43
77
114
152
188
220
245
255
255
255
255
234
204
168
128
87
47
10
0
0
0
0
0
0
0
0
0
0
0
0
0
0
0
0
0
0
0
0
0
0
0
0
0
0
0
0
0
0
0
1
2
2
3
3
0
0
0
0
0
3
8
15
23
31
38
45
50
54
55
55
52
48
42
34
26
18
9
2
0
0
0
0
0
0
0
0
0
0
0
0
0
0
0
0
0
0
0
0
0
0
1
2
3
4
4
5
4
3
1
0
0
0
0
0
0
0
0
0
0
5
18
33
50
67
84
99
112
122
128
130
128
122
113
101
88
74
60
47
36
26
20
15
13
13
14
17
21
24
29
33
37
40
43
46
48
50
50
50
49
47
45
41
38
33
29
23
17
11
4
0
0
0
0
0
0
0
0
0
0
9
30
54
80
107
133
157
176
191
201
204
200
191
177
159
138
116
94
74
56
41
31
24
21
20
23
27
32
38
45
51
58
63
68
72
76
78
79
79
77
74
70
65
59
52
44
35
26
16
5
0
0
0
0
0
0
0
0
0
0
13
44
80
118
156
193
226
251
255
255
255
255
239
208
171
129
87
46
8
0
0
0
0
0
0
0
0
0
0
0
0
0
0
0
0
0
0
0
0
0
0
0
0
0
0
0
0
0
0
0
1
2
3
3
3
0
0
0
0
0
3
9
16
23
31
39
46
51
55
56
56
53
49
43
35
27
18
10
2
0
0
0
0
0
0
0
0
0
0
0
0
0
0
0
0
0
0
0
0
0
0
1
2
3
4
4
5
4
3
1
0
0
0
0
0
0
0
0
0
0
5
18
33
49
66
83
99
112
123
129
132
132
127
120
110
99
86
74
62
52
44
38
34
31
31
32
35
38
42
46
50
54
58
61
64
66
68
68
68
66
63
59
54
49
43
36
29
21
13
4
0
0
0
0
0
0
0
0
0
0
9
30
53
79
106
132
157
177
193
203
208
207
200
189
173
155
135
116
98
82
69
59
53
49
49
51
55
59
65
72
78
84
91
96
101
104
107
107
107
104
99
93
85
76
66
55
44
31
19
6
0
0
0
0
0
0
0
0
0
0
14
46
82
120
160
197
230
255
255
255
255
255
244
213
175
133
90
48
10
0
0
0
0
0
0
0
0
0
0
0
0
0
0
0
0
0
0
0
0
0
0
0
0
0
0
0
0
0
0
0
1
2
3
3
3
0
0
0
0
0
3
9
16
24
32
39
46
51
55
57
56
54
50
43
36
28
19
11
3
0
0
0
0
0
0
0
0
0
0
0
0
0
0
0
0
0
0
0
0
0
0
1
2
3
4
4
5
4
3
1
0
0
0
0
0
0
0
0
0
0
5
17
32
48
65
82
98
112
123
130
134
135
132
127
119
109
99
88
78
69
62
57
53
51
51
52
54
57
60
64
68
72
76
79
82
85
86
86
85
82
78
73
67
59
51
43
34
24
15
5
0
0
0
0
0
0
0
0
0
0
9
29
53
78
105
131
155
176
193
205
211
212
208
199
187
172
155
139
123
109
98
89
84
81
80
81
85
89
94
100
106
113
119
125
130
133
135
135
134
129
123
115
104
93
80
66
51
37
22
7
0
0
0
0
0
0
0
0
0
0
14
46
83
122
161
199
232
255
255
255
255
255
247
216
179
137
94
52
14
0
0
0
0
0
0
0
0
0
0
0
0
0
0
0
0
0
0
0
0
0
0
0
0
0
0
0
0
0
0
0
1
2
3
3
3
0
0
0
0
0
3
9
16
24
31
39
46
51
55
57
57
54
50
44
36
28
20
12
4
0
0
0
0
0
0
0
0
0
0
0
0
0
0
0
0
0
0
0
0
0
0
1
1
2
3
4
5
4
3
1
0
0
0
0
0
0
0
0
0
0
5
17
31
47
64
80
96
110
121
130
135
137
136
133
127
119
111
102
94
86
80
76
72
71
70
71
73
75
78
81
85
89
93
96
99
102
103
102
101
97
92
85
78
69
59
49
38
27
16
5
0
0
0
0
0
0
0
0
0
0
9
29
52
76
102
128
152
174
191
204
212
215
214
208
199
187
174
160
147
135
126
119
114
111
111
112
114
118
122
128
133
140
146
151
156
160
161
161
158
153
145
134
122
107
92
75
58
41
24
8
0
0
0
0
0
0
0
0
0
0
14
47
83
122
161
199
232
255
255
255
255
255
249
219
182
141
98
57
20
0
0
0
0
0
0
0
0
0
0
0
0
0
0
0
0
0
0
0
0
0
0
0
0
0
0
0
0
0
0
0
1
2
2
2
2
0
0
0
0
0
3
8
15
23
31
38
45
51
54
56
56
54
50
44
37
29
21
13
5
0
0
0
0
0
0
0
0
0
0
0
0
0
0
0
0
0
0
0
0
0
0
1
1
2
3
4
4
4
3
1
0
0
0
0
0
0
0
0
0
0
5
16
30
45
61
77
93
107
119
128
134
137
138
136
132
127
120
113
107
101
96
92
90
88
88
88
89
91
94
97
100
104
107
111
114
116
116
116
113
109
103
95
86
76
65
53
41
29
17
6
0
0
0
0
0
0
0
0
0
0
8
28
50
74
99
124
148
169
187
201
211
216
217
214
208
199
189
178
168
158
151
145
141
138
138
138
140
143
147
152
157
163
169
174
179
182
183
182
178
171
162
150
135
119
101
82
63
44
26
8
0
0
0
0
0
0
0
0
0
0
14
46
82
121
159
196
228
254
255
255
255
255
248
218
183
143
102
63
26
0
0
0
0
0
0
0
0
0
0
0
0
0
0
0
0
0
0
0
0
0
0
0
0
0
0
0
0
0
0
0
0
1
2
2
2
0
0
0
0
0
2
8
15
22
30
37
44
49
53
55
54
52
49
43
36
29
21
13
6
1
0
0
0
0
0
0
0
0
0
0
0
0
0
0
0
0
0
0
0
0
0
0
1
2
3
4
4
4
3
1
0
0
0
0
0
0
0
0
0
0
4
15
28
42
58
74
89
103
115
124
131
135
137
137
135
131
127
122
116
112
108
105
103
102
101
102
102
104
106
108
111
115
118
122
124
126
126
125
122
117
111
102
92
81
69
56
43
30
18
6
0
0
0
0
0
0
0
0
0
0
8
26
47
70
94
118
141
162
180
195
206
213
216
215
212
206
199
191
183
176
170
165
162
160
159
160
161
163
166
170
175
180
186
191
195
198
199
197
192
185
174
160
145
127
107
87
67
46
27
9
0
0
0
0
0
0
0
0
0
0
14
45
80
117
155
190
222
247
255
255
255
255
243
215
181
144
105
67
32
3
0
0
0
0
0
0
0
0
0
0
0
0
0
0
0
0
0
0
0
0
0
0
0
0
0
0
0
0
0
0
0
1
1
1
1
0
0
0
0
0
2
8
14
21
29
36
42
47
50
52
52
50
47
42
35
28
21
14
7
2
0
0
0
0
0
0
0
0
0
0
0
1
1
1
1
1
1
0
0
0
0
0
1
2
3
3
4
4
3
1
0
0
0
0
0
0
0
0
0
0
4
14
26
40
54
69
84
97
109
119
126
131
134
135
134
132
129
126
122
119
116
114
112
111
111
111
111
112
114
116
119
122
125
128
130
132
132
130
127
122
115
106
95
83
71
57
44
31
18
6
0
0
0
0
0
0
0
0
0
0
8
25
45
66
89
111
133
154
171
186
198
206
211
212
211
208
203
198
192
186
182
178
176
174
174
174
175
176
179
182
186
191
196
201
205
207
207
205
200
192
180
166
149
130
110
89
68
47
27
9
0
0
0
0
0
0
0
0
0
0
13
43
77
112
148
182
212
236
253
255
255
252
234
208
176
141
104
69
36
9
0
0
0
0
0
0
0
0
0
0
0
3
5
5
4
2
1
0
0
0
0
0
0
0
0
0
0
0
0
0
0
0
0
0
0
0
0
0
0
0
2
7
13
20
27
33
39
44
47
49
49
47
44
39
34
27
20
14
8
3
0
0
0
0
0
0
0
0
0
0
1
2
2
2
2
1
1
0
0
0
0
0
1
2
2
3
4
3
3
1
0
0
0
0
0
0
0
0
0
0
4
13
24
36
50
64
78
90
102
111
119
124
128
130
130
130
128
126
123
121
119
117
116
115
115
115
115
116
117
119
121
124
126
129
131
133
133
131
127
122
115
105
95
83
70
57
43
30
18
6
0
0
0
0
0
0
0
0
0
0
7
23
41
61
82
103
124
143
160
175
186
195
201
204
205
204
201
197
193
190
186
184
182
181
180
180
180
182
184
186
190
194
199
203
206
208
208
206
200
192
180
166
149
130
109
88
67
46
27
9
0
0
0
0
0
0
0
0
0
0
13
41
72
105
139
170
199
221
237
245
245
237
221
197
168
135
102
69
39
13
0
0
0
0
0
0
0
0
0
0
5
8
10
10
9
8
6
4
3
3
2
2
2
2
1
1
1
1
0
0
0
0
0
0
0
0
0
0
0
0
2
7
12
18
24
30
36
40
43
45
45
44
41
36
31
25
19
13
8
3
0
0
0
0
0
0
0
0
0
1
2
2
2
2
2
1
1
1
0
0
0
0
1
1
2
3
3
3
2
1
0
0
0
0
0
0
0
0
0
0
3
12
21
33
45
58
70
82
93
102
109
115
119
121
123
123
122
121
119
118
116
115
114
114
113
113
113
114
115
116
118
121
123
126
127
129
128
127
123
118
110
102
91
80
67
54
42
29
17
5
0
0
0
0
0
0
0
0
0
0
6
21
37
55
74
93
112
130
146
160
171
180
187
191
193
193
192
190
188
185
183
181
180
179
178
178
178
179
180
183
186
189
193
197
200
202
202
199
193
185
174
160
143
125
105
85
64
44
26
8
0
0
0
0
0
0
0
0
0
0
12
38
66
97
127
156
182
203
217
225
225
218
203
182
156
126
96
66
39
16
0
0
0
0
0
0
0
0
0
3
8
11
13
13
13
11
10
8
7
6
6
5
5
4
3
3
2
1
1
0
0
0
0
0
0
0
0
0
0
0
2
6
11
16
22
27
32
36
39
40
40
39
36
33
28
23
17
12
7
3
0
0
0
0
0
0
0
0
0
1
2
2
2
2
2
1
1
1
0
0
0
0
1
1
2
2
3
3
2
1
0
0
0
0
0
0
0
0
0
0
3
10
19
29
40
51
62
73
82
90
97
103
107
110
112
113
113
112
111
110
109
109
108
108
107
107
107
107
108
109
111
113
115
117
119
120
120
118
114
109
103
94
85
74
62
50
38
27
15
5
0
0
0
0
0
0
0
0
0
0
6
18
33
48
65
82
99
115
129
142
153
161
168
173
176
177
177
176
175
173
172
171
170
169
168
168
168
169
170
171
174
177
181
184
187
188
188
185
180
172
161
148
133
116
97
78
59
41
23
7
0
0
0
0
0
0
0
0
0
0
10
34
59
86
113
139
162
180
193
200
201
194
181
163
140
114
87
61
37
16
0
0
0
0
0
0
0
0
0
5
10
12
14
14
14
13
11
10
9
8
7
7
6
5
4
3
2
2
1
0
0
0
0
0
0
0
0
0
0
0
2
5
9
14
19
23
27
31
33
34
35
33
31
28
24
20
15
11
7
3
0
0
0
0
0
0
0
0
0
1
2
2
2
2
2
1
1
1
0
0
0
0
0
1
2
2
2
2
2
1
0
0
0
0
0
0
0
0
0
0
3
9
16
24
34
43
53
62
70
78
84
89
93
96
98
99
100
100
99
99
98
98
97
97
97
96
96
96
97
98
99
101
103
105
106
107
107
105
102
98
91
84
75
66
55
45
34
24
14
4
0
0
0
0
0
0
0
0
0
0
5
16
28
41
56
70
84
98
111
122
132
140
146
151
154
156
156
156
156
155
154
154
153
152
152
151
151
151
152
154
156
159
162
165
167
168
168
165
160
153
144
132
118
103
86
70
53
36
21
7
0
0
0
0
0
0
0
0
0
0
9
29
51
74
97
120
139
155
166
172
173
167
156
140
121
99
76
53
33
15
1
0
0
0
0
0
0
0
1
6
10
12
13
14
13
12
11
10
9
8
8
7
6
5
4
3
3
2
1
0
0
0
0
0
0
0
0
0
0
0
1
4
8
11
15
19
23
25
27
28
29
28
26
23
20
16
12
9
5
3
0
0
0
0
0
0
0
0
0
1
2
2
2
2
2
1
1
0
0
0
0
0
0
1
1
2
2
2
2
1
0
0
0
0
0
0
0
0
0
0
2
7
13
20
28
35
43
51
58
64
69
74
77
80
82
83
84
84
84
84
84
83
83
83
83
82
82
82
83
83
84
86
87
89
90
91
91
89
87
83
78
71
64
56
47
38
29
20
11
4
0
0
0
0
0
0
0
0
0
0
4
13
23
34
45
57
69
81
91
101
109
116
121
126
129
131
132
132
132
132
131
131
131
130
130
129
129
129
130
131
133
135
137
140
142
143
143
141
136
130
122
112
100
87
73
59
45
31
18
6
0
0
0
0
0
0
0
0
0
0
7
24
42
61
80
99
115
128
137
142
143
138
129
116
100
82
63
44
27
13
2
0
0
0
0
0
0
0
2
5
8
10
12
12
11
11
10
9
8
7
7
6
6
5
4
3
2
1
1
0
0
0
0
0
0
0
0
0
0
0
1
3
6
9
12
15
18
20
21
22
22
22
20
18
16
13
10
7
4
2
0
0
0
0
0
0
0
0
0
1
1
1
1
1
1
1
1
0
0
0
0
0
0
1
1
1
2
2
1
0
0
0
0
0
0
0
0
0
0
0
2
5
10
15
21
28
34
40
45
50
54
58
61
63
65
66
67
67
67
67
67
67
67
67
66
66
66
66
66
67
68
69
70
71
72
73
73
72
70
67
62
57
51
45
38
30
23
16
9
3
0
0
0
0
0
0
0
0
0
0
3
10
18
26
35
45
54
63
71
79
85
91
96
99
102
104
105
106
106
106
106
105
105
105
104
104
104
104
104
105
106
108
110
112
114
115
114
113
110
105
98
90
81
70
59
47
36
25
14
4
0
0
0
0
0
0
0
0
0
0
6
19
33
48
63
77
90
100
107
111
112
108
101
91
78
64
49
35
21
10
1
0
0
0
0
0
0
0
1
4
6
8
9
9
9
8
7
7
6
6
5
5
4
4
3
2
2
1
1
0
0
0
0
0
0
0
0
0
0
0
1
2
4
7
9
11
13
15
16
16
16
16
15
13
11
9
7
5
3
1
0
0
0
0
0
0
0
0
0
1
1
1
1
1
1
1
0
0
0
0
0
0
0
0
1
1
1
1
1
0
0
0
0
0
0
0
0
0
0
0
1
4
7
11
16
20
25
29
33
37
40
42
45
46
48
49
49
50
50
50
50
50
50
50
49
49
49
49
49
50
50
51
52
53
54
54
54
53
52
50
47
43
38
33
28
23
17
12
7
2
0
0
0
0
0
0
0
0
0
0
2
7
13
19
26
32
39
46
52
57
62
66
70
73
75
76
77
78
78
78
78
78
78
78
78
77
77
77
77
78
79
80
82
83
85
85
85
84
82
78
73
67
60
52
44
35
27
18
10
3
0
0
0
0
0
0
0
0
0
0
4
14
24
35
46
56
66
73
78
81
81
79
74
66
57
46
36
25
15
7
1
0
0
0
0
0
0
0
1
3
4
5
6
6
6
6
5
4
4
4
3
3
3
2
2
2
1
1
0
0
0
0
0
0
0
0
0
0
0
0
0
2
3
4
6
7
8
10
10
11
11
10
10
9
7
6
5
3
2
1
0
0
0
0
0
0
0
0
0
0
0
1
1
1
0
0
0
0
0
0
0
0
0
0
0
1
1
1
1
0
0
0
0
0
0
0
0
0
0
0
1
3
5
7
10
13
16
19
22
24
26
28
29
31
31
32
33
33
33
33
33
33
33
33
33
33
33
33
33
33
33
34
35
35
36
36
36
36
35
33
31
29
26
22
19
15
11
8
5
1
0
0
0
0
0
0
0
0
0
0
1
5
8
13
17
21
26
30
34
38
41
44
46
48
49
51
51
52
52
52
52
52
52
52
52
51
51
51
51
52
52
53
54
56
56
57
57
56
55
52
49
45
40
35
29
24
18
12
7
2
0
0
0
0
0
0
0
0
0
0
3
9
16
23
30
37
43
48
52
53
53
52
48
43
37
30
23
16
10
4
0
0
0
0
0
0
0
0
0
1
2
3
4
4
3
3
3
2
2
2
2
2
1
1
1
1
1
0
0
0
0
0
0
0
0
0
0
0
0
0
0
1
2
2
3
4
5
5
6
6
6
6
5
5
4
3
2
2
1
0
0
0
0
0
0
0
0
0
0
0
0
0
0
0
0
0
0
0
0
0
0
0
0
0
0
0
0
0
0
0
0
0
0
0
0
0
0
0
0
0
0
1
3
4
5
7
9
10
12
13
14
15
16
17
17
17
18
18
18
18
18
18
18
18
18
18
18
18
18
18
18
18
19
19
20
20
20
20
19
18
17
16
14
12
10
8
6
4
2
1
0
0
0
0
0
0
0
0
0
0
1
3
5
7
9
11
14
16
18
20
22
24
25
26
27
27
28
28
28
28
28
28
28
28
28
28
28
28
28
28
29
29
30
30
31
31
31
31
30
29
27
25
22
19
16
13
10
7
4
1
0
0
0
0
0
0
0
0
0
0
2
5
9
13
16
20
23
26
28
29
29
28
26
23
20
16
12
8
5
2
0
0
0
0
0
0
0
0
0
0
1
1
2
2
2
1
1
1
1
1
1
1
1
0
0
0
0
0
0
0
0
0
0
0
0
0
0
0
0
0
0
0
0
1
1
1
1
2
2
2
2
2
2
1
1
1
1
0
0
0
0
0
0
0
0
0
0
0
0
0
0
0
0
0
0
0
0
0
0
0
0
0
0
0
0
0
0
0
0
0
0
0
0
0
0
0
0
0
0
0
0
0
1
1
2
2
3
3
3
4
4
4
5
5
5
5
5
5
5
5
5
5
5
5
5
5
5
5
5
5
5
5
6
6
6
6
6
6
6
5
5
5
4
4
3
2
2
1
1
0
0
0
0
0
0
0
0
0
0
0
0
1
1
2
3
3
4
5
5
6
6
7
7
8
8
8
8
8
8
8
8
8
8
8
8
8
8
8
8
8
8
9
9
9
9
9
9
9
9
9
8
7
7
6
5
4
3
2
1
0
0
0
0
0
0
0
0
0
0
0
0
1
3
4
5
6
7
8
8
8
8
8
8
7
6
5
3
2
1
0
0
0
0
0
0
0
0
0
0
0
0
0
0
0
0
0
0
0
0
0
0
0
0
0
0
0
0
0
0
0
0
0
0
0
0
0
0
0
0
0
0
0
0
0
0
0
0
0
0
0
0
0
0
0
0
0
0
0
0
0
0
0
0
0
0
0
0
0
0
0
0
0
0
0
0
0
0
0
0
0
0
0
0
0
0
0
0
0
0
0
0
0
0
0
0
0
0
0
0
0
0
0
0
0
0
0
0
0
0
0
0
0
0
0
0
0
0
0
0
0
0
0
0
0
0
0
0
0
0
0
0
0
0
0
0
0
0
0
0
0
0
0
0
0
0
0
0
0
0
0
0
1
1
1
1
1
1
1
1
0
0
0
0
0
0
0
0
0
0
0
0
0
0
0
0
0
0
0
0
0
0
0
0
0
0
0
0
0
0
0
0
0
0
0
0
0
0
0
0
0
0
0
0
0
0
0
0
0
0
0
0
1
1
2
2
2
2
1
1
0
0
0
0
0
0
0
0
0
0
0
0
0
0
0
0
0
0
0
0
0
0
1
1
1
1
1
1
1
0
0
0
0
0
0
0
0
0
0
0
0
0
0
0
0
0
0
0
0
0
0
0
0
0
0
0
1
1
1
0
0
0
0
0
0
0
0
0
0
0
0
0
0
0
0
0
0
0
0
0
0
0
0
1
1
1
0
0
0
0
0
0
0
0
0
0
0
0
0
0
0
0
0
0
0
0
0
0
0
0
0
0
0
1
1
1
1
1
1
1
0
0
0
0
0
0
0
0
0
0
0
0
0
0
0
0
0
0
0
0
0
0
0
0
0
0
0
0
0
0
0
0
0
0
0
0
0
0
0
0
0
0
0
0
0
0
0
0
0
0
0
0
1
2
2
3
3
2
2
1
0
0
0
0
0
0
0
0
0
0
0
0
0
0
0
0
0
0
0
0
0
0
0
0
0
0
0
0
0
0
0
0
0
0
0
0
0
0
0
0
0
0
0
0
0
0
0
0
0
0
0
1
2
3
4
4
5
4
4
2
1
0
0
0
0
0
0
0
0
0
0
0
0
0
0
0
0
0
0
0
0
1
2
3
3
3
2
2
1
1
0
0
0
0
0
0
0
0
0
0
0
0
0
0
0
0
0
0
0
0
0
0
0
0
0
0
1
1
1
1
0
0
0
0
0
0
0
0
0
0
0
0
0
0
0
0
0
0
0
0
0
0
1
1
1
1
1
1
0
0
0
0
0
0
0
0
0
0
0
0
0
0
0
0
0
0
0
0
0
0
0
0
0
1
1
1
1
1
1
1
0
0
0
0
0
0
0
0
0
0
0
0
0
0
0
0
0
0
0
0
0
0
0
0
0
0
0
0
0
0
0
0
0
0
0
0
0
0
0
0
0
0
0
0
0
0
0
0
0
0
0
1
2
3
3
4
4
3
3
2
1
0
0
0
0
0
0
0
0
0
0
0
0
0
0
0
0
0
0
0
0
0
0
0
0
0
0
0
0
0
0
0
0
0
0
0
0
0
0
0
0
0
0
0
0
0
0
0
0
0
0
1
3
4
5
6
6
6
5
3
1
0
0
0
0
0
0
0
0
0
0
0
0
0
0
0
0
0
0
0
0
1
3
4
4
4
3
3
2
1
0
0
0
0
0
0
0
0
0
0
0
0
0
0
0
0
0
0
0
0
0
0
0
0
0
0
1
1
1
1
0
0
0
0
0
0
0
0
0
0
0
0
0
0
0
0
0
0
0
0
0
0
1
1
1
1
1
1
0
0
0
0
0
0
0
0
0
0
0
0
0
0
0
0
0
0
0
0
0
0
0
0
0
1
1
1
2
1
1
1
0
0
0
0
0
0
0
0
0
0
0
0
0
0
0
0
0
0
0
0
0
0
0
0
0
0
0
0
0
0
0
0
0
0
0
0
0
0
0
0
0
0
0
0
0
0
0
0
0
0
0
1
2
3
4
4
4
4
3
2
1
0
0
0
0
0
0
0
0
0
0
0
0
0
0
0
0
0
0
0
0
0
0
0
0
0
0
0
0
0
0
0
0
0
0
0
0
0
0
0
0
0
0
0
0
0
0
0
0
0
0
1
3
5
6
7
7
7
6
4
1
0
0
0
0
0
0
0
0
0
0
0
0
0
0
0
0
0
0
0
0
1
3
4
4
4
4
3
2
1
0
0
0
0
0
0
0
0
0
0
0
0
0
0
0
0
0
0
0
0
0
0
0
0
0
0
1
1
1
1
0
0
0
0
0
0
0
0
0
0
0
0
0
0
0
0
0
0
0
0
0
0
1
1
1
1
1
1
0
0
0
0
0
0
0
0
0
0
0
0
0
0
0
0
0
0
0
0
0
0
0
0
0
1
1
1
2
2
1
1
0
0
0
0
0
0
0
0
0
0
0
0
0
0
0
0
0
0
0
0
0
0
0
0
0
0
0
0
0
0
0
0
0
0
0
0
0
0
0
0
0
0
0
0
0
0
0
0
0
0
0
1
2
3
4
4
4
4
3
2
1
0
0
0
0
0
0
0
0
0
0
0
0
0
0
0
0
0
0
0
0
0
0
0
0
0
0
0
0
0
0
0
0
0
0
0
0
0
0
0
0
0
0
0
0
0
0
0
0
0
0
1
3
5
6
7
7
7
6
4
1
0
0
0
0
0
0
0
0
0
0
0
0
0
0
0
0
0
0
0
0
1
3
4
4
4
4
3
2
1
0
0
0
0
0
0
0
0
0
0
0
0
0
0
0
0
0
0
0
0
0
0
0
0
0
0
